<svg width="30" height="30" viewBox="0 0 30 30" fill="none" xmlns="http://www.w3.org/2000/svg">
<path d="M11.25 15C11.9375 15 12.5263 14.755 13.0163 14.265C13.5054 13.7758 13.75 13.1875 13.75 12.5C13.75 11.8125 13.5054 11.2237 13.0163 10.7337C12.5263 10.2446 11.9375 10 11.25 10C10.5625 10 9.97417 10.2446 9.485 10.7337C8.995 11.2237 8.75 11.8125 8.75 12.5C8.75 13.1875 8.995 13.7758 9.485 14.265C9.97417 14.755 10.5625 15 11.25 15ZM18.75 15C19.4375 15 20.0263 14.755 20.5163 14.265C21.0054 13.7758 21.25 13.1875 21.25 12.5C21.25 11.8125 21.0054 11.2237 20.5163 10.7337C20.0263 10.2446 19.4375 10 18.75 10C18.0625 10 17.4742 10.2446 16.985 10.7337C16.495 11.2237 16.25 11.8125 16.25 12.5C16.25 13.1875 16.495 13.7758 16.985 14.265C17.4742 14.755 18.0625 15 18.75 15ZM11.25 26.25V21.25H13.75V26.25H11.25ZM16.25 26.25V21.25H18.75V26.25H16.25ZM6.25 26.25C5.5625 26.25 4.97375 26.0054 4.48375 25.5163C3.99458 25.0263 3.75 24.4375 3.75 23.75V11.25C3.75 9.16667 4.47917 7.39583 5.9375 5.9375C7.39583 4.47917 9.16667 3.75 11.25 3.75H18.75C20.8333 3.75 22.6042 4.47917 24.0625 5.9375C25.5208 7.39583 26.25 9.16667 26.25 11.25V23.75C26.25 24.4375 26.0054 25.0263 25.5163 25.5163C25.0263 26.0054 24.4375 26.25 23.75 26.25H21.25V21.25C21.25 20.5625 21.0054 19.9742 20.5163 19.485C20.0263 18.995 19.4375 18.75 18.75 18.75H11.25C10.5625 18.75 9.97417 18.995 9.485 19.485C8.995 19.9742 8.75 20.5625 8.75 21.25V26.25H6.25Z" fill="white"/>
</svg>
